<?xml version="1.0" encoding="utf-8"?>
<!-- Generator: Adobe Illustrator 16.0.0, SVG Export Plug-In . SVG Version: 6.00 Build 0)  -->
<!DOCTYPE svg PUBLIC "-//W3C//DTD SVG 1.1//EN" "http://www.w3.org/Graphics/SVG/1.1/DTD/svg11.dtd">
<svg version="1.1" id="Layer_1" xmlns="http://www.w3.org/2000/svg" xmlns:xlink="http://www.w3.org/1999/xlink" x="0px" y="0px"
	 width="501.05px" height="405.041px" viewBox="0 0 501.05 405.041" style="enable-background:new 0 0 501.05 405.041;"
	 xml:space="preserve">
<style type="text/css">
<![CDATA[
	.st0{clip-path:url(#SVGID_24_);fill:none;stroke:#56401D;stroke-miterlimit:10;}
	.st1{clip-path:url(#SVGID_56_);fill:#785623;}
	.st2{clip-path:url(#SVGID_20_);fill:#816661;}
	.st3{clip-path:url(#SVGID_12_);fill:#DDB570;}
	.st4{clip-path:url(#SVGID_12_);fill:none;stroke:#56401D;stroke-miterlimit:10;}
	.st5{clip-path:url(#SVGID_16_);fill:#312A20;}
	.st6{clip-path:url(#SVGID_46_);fill:#A47132;}
	.st7{clip-path:url(#SVGID_18_);fill:#64461D;}
	.st8{clip-path:url(#SVGID_42_);fill:#1F2025;}
	.st9{clip-path:url(#SVGID_14_);fill:#A47132;}
	.st10{clip-path:url(#SVGID_22_);fill:#E7EFF2;}
	.st11{clip-path:url(#SVGID_58_);fill:#785623;}
	.st12{clip-path:url(#SVGID_2_);fill:none;stroke:#1F2025;stroke-linecap:round;stroke-linejoin:round;stroke-miterlimit:10;}
	.st13{clip-path:url(#SVGID_2_);fill:#7A7A7A;}
	.st14{clip-path:url(#SVGID_46_);fill:none;stroke:#56401D;stroke-miterlimit:10;}
	.st15{clip-path:url(#SVGID_48_);fill:#A47132;}
	.st16{clip-path:url(#SVGID_22_);fill:none;stroke:#56401D;stroke-miterlimit:10;}
	.st17{clip-path:url(#SVGID_8_);fill:#322A21;}
	.st18{clip-path:url(#SVGID_16_);fill:#A6A783;}
	.st19{clip-path:url(#SVGID_8_);fill:none;stroke:#56401D;stroke-miterlimit:10;}
	.st20{clip-path:url(#SVGID_6_);fill:#A47132;}
	.st21{clip-path:url(#SVGID_20_);fill:none;stroke:#56401D;stroke-miterlimit:10;}
	.st22{clip-path:url(#SVGID_18_);fill:none;stroke:#56401D;stroke-miterlimit:10;}
	.st23{clip-path:url(#SVGID_2_);}
	.st24{clip-path:url(#SVGID_18_);fill:#DDB570;}
	.st25{clip-path:url(#SVGID_60_);fill:#785623;}
	.st26{clip-path:url(#SVGID_44_);fill:#C3C3CC;}
	.st27{clip-path:url(#SVGID_6_);fill:none;stroke:#56401D;stroke-miterlimit:10;}
	.st28{clip-path:url(#SVGID_24_);fill:#F1B4A6;}
	.st29{opacity:0.5;clip-path:url(#SVGID_48_);}
	.st30{clip-path:url(#SVGID_6_);fill:#E5D6CF;}
	.st31{clip-path:url(#SVGID_50_);fill:#785623;}
	.st32{clip-path:url(#SVGID_16_);fill:none;stroke:#56401D;stroke-miterlimit:10;}
	.st33{clip-path:url(#SVGID_38_);fill:#1F2025;animation:st33ani 1s infinite alternate linear;}
	@keyframes st33ani{
		to{transform:translateX(10px)}
	}
	.st34{clip-path:url(#SVGID_22_);fill:#CEE5ED;}
	.st35{clip-path:url(#SVGID_26_);fill:#F1B4A6;}
	.st36{clip-path:url(#SVGID_26_);fill:#F2BBAC;}
	.st37{clip-path:url(#SVGID_52_);fill:#785623;}
	.st38{clip-path:url(#SVGID_36_);fill:#FFFDFD;stroke:#1F2025;stroke-miterlimit:10;}
	.st39{clip-path:url(#SVGID_36_);fill:#FFFFFF;}
	.st40{clip-path:url(#SVGID_26_);fill:none;stroke:#56401D;stroke-miterlimit:10;}
	.st41{clip-path:url(#SVGID_14_);fill:none;stroke:#56401D;stroke-miterlimit:10;}
	.st42{clip-path:url(#SVGID_54_);fill:#785623;}
	.st43{clip-path:url(#SVGID_32_);}
	.st44{clip-path:url(#SVGID_36_);fill:none;stroke:#1F2025;stroke-miterlimit:10;}
	.st45{clip-path:url(#SVGID_2_);fill:none;stroke:#56401D;stroke-miterlimit:10;}
	.st46{clip-path:url(#SVGID_10_);fill:#ACB08D;}
	.st47{clip-path:url(#SVGID_36_);fill:none;stroke:#1F2025;stroke-linecap:round;stroke-linejoin:round;stroke-miterlimit:10;}
	.st48{clip-path:url(#SVGID_48_);fill:none;stroke:#56401D;stroke-miterlimit:10;}
]]>
</style>
<g>
	<defs>
		<rect id="SVGID_1_" x="-731.527" y="-211.76" width="1950" height="841.891"/>
	</defs>
	<clipPath id="SVGID_2_">
		<use xlink:href="#SVGID_1_"  style="overflow:visible;"/>
	</clipPath>
	<g class="st23">
		<defs>
			<rect id="SVGID_3_" x="-37.361" y="19.13" width="560" height="380.001"/>
		</defs>
		<clipPath id="SVGID_4_">
			<use xlink:href="#SVGID_3_"  style="overflow:visible;"/>
		</clipPath>
	</g>
	<g class="st23">
		<defs>
			<rect id="SVGID_5_" x="-731.527" y="-211.76" width="1950" height="841.891"/>
		</defs>
		<clipPath id="SVGID_6_">
			<use xlink:href="#SVGID_5_"  style="overflow:visible;"/>
		</clipPath>
		<path class="st30" d="M18.307,358.297l10.833,21.941c0,0,12.72-3.049,28.575-7.348l-12.666-23.295L18.307,358.297z"/>
		<path class="st27" d="M18.307,358.297l10.833,21.941c0,0,12.72-3.049,28.575-7.348l-12.666-23.295L18.307,358.297z"/>
		<path class="st20" d="M198.473,314.26c-30.125-27.629-107.75-33.383-107.75-33.383s-20.75,0.004-28,37.754
			c0,0-4.875,25.25-16.437,30.563l-1.237,0.402l12.666,23.295c18.856-5.115,42.147-12,53.758-17.635c0,0,10.875-9.125,55.25-2.5
			c0,0,23.743,5.457,30.438,14.693l26.788-4.102C220.882,347.86,213.964,328.467,198.473,314.26"/>
		<path class="st27" d="M198.473,314.26c-30.125-27.629-107.75-33.383-107.75-33.383s-20.75,0.004-28,37.754
			c0,0-4.875,25.25-16.437,30.563l-1.237,0.402l12.666,23.295c18.856-5.115,42.147-12,53.758-17.635c0,0,10.875-9.125,55.25-2.5
			c0,0,23.743,5.457,30.438,14.693l26.788-4.102C220.882,347.86,213.964,328.467,198.473,314.26z"/>
		<path class="st30" d="M197.161,367.45c0.104,0.145,0.217,0.285,0.312,0.432c0,0,5.5,18.707,5.375,21.582
			s23.459-0.332,23.459-0.332s0.54-11.15-2.356-25.783L197.161,367.45z"/>
		<path class="st27" d="M197.161,367.45c0.104,0.145,0.217,0.285,0.312,0.432c0,0,5.5,18.707,5.375,21.582
			s23.459-0.332,23.459-0.332s0.54-11.15-2.356-25.783L197.161,367.45z"/>
	</g>
	<g class="st23">
		<defs>
			<rect id="SVGID_7_" x="-731.527" y="-211.76" width="1950" height="841.891"/>
		</defs>
		<clipPath id="SVGID_8_">
			<use xlink:href="#SVGID_7_"  style="overflow:visible;"/>
		</clipPath>
		<path class="st17" d="M29.416,353.805c0,0-3.109-5.174-8.776-2.842c0,0-13.333,0.834-8.5,31.834c0,0,3.334,13.334,17.667,14.166
			c0,0,12.667-1,9.333-9.832c0,0-1.833-6.834-1.833-8.5c0,0-11-0.5-9-22.834L29.416,353.805z"/>
		<path class="st19" d="M29.416,353.805c0,0-3.109-5.174-8.776-2.842c0,0-13.333,0.834-8.5,31.834c0,0,3.334,13.334,17.667,14.166
			c0,0,12.667-1,9.333-9.832c0,0-1.833-6.834-1.833-8.5c0,0-11-0.5-9-22.834L29.416,353.805z"/>
		<path class="st17" d="M200.307,379.297c0,0,19.815,4.492,25.649-1.508c0,0,12.351,3.008,15.018,7.842c0,0,5.834,9.5-8,11.5
			c0,0-21.084,2.5-30.125,0c0,0-8.542-3.5-6.042-10.668C199.307,379.297,200.307,379.297,200.307,379.297"/>
		<path class="st19" d="M200.307,379.297c0,0,19.815,4.492,25.649-1.508c0,0,12.351,3.008,15.018,7.842c0,0,5.834,9.5-8,11.5
			c0,0-21.084,2.5-30.125,0c0,0-8.542-3.5-6.042-10.668C199.307,379.297,200.307,379.297,200.307,379.297z"/>
	</g>
	<g class="st23">
		<defs>
			<rect id="SVGID_9_" x="-731.527" y="-211.76" width="1950" height="841.891"/>
		</defs>
		<clipPath id="SVGID_10_">
			<use xlink:href="#SVGID_9_"  style="overflow:visible;"/>
		</clipPath>
		<path class="st46" d="M228.202,384.391c0,1.295-1.049,2.344-2.344,2.344s-2.344-1.049-2.344-2.344s1.049-2.344,2.344-2.344
			S228.202,383.096,228.202,384.391"/>
		<path class="st46" d="M232.682,384.881c0,0-6.823-0.012-2.708,5.332c0,0,1.391,1.768,3.786,1.947
			c0.069,0.006,0.142,0.01,0.214,0.012c2.5,0.084,3.125-2,3.125-2s0.958-1.875-0.75-3.709
			C234.64,384.631,232.682,384.881,232.682,384.881"/>
		<path class="st46" d="M29.766,385.405c0,0-6.119,3.018-0.06,5.98c0,0,2.031,0.967,4.257,0.064
			c0.066-0.025,0.132-0.055,0.197-0.084c2.277-1.035,1.913-3.18,1.913-3.18s0.026-2.105-2.319-2.99
			C31.41,384.311,29.766,385.405,29.766,385.405"/>
	</g>
	<g class="st23">
		<defs>
			<rect id="SVGID_11_" x="-731.527" y="-211.76" width="1950" height="841.891"/>
		</defs>
		<clipPath id="SVGID_12_">
			<use xlink:href="#SVGID_11_"  style="overflow:visible;"/>
		</clipPath>
		<path class="st3" d="M112.384,235.913l-30.146,41.551c0,0-6,7,3.333,13.668c9.333,6.666,18.667,17,39,26.666
			c0,0,30.667,15.334,71,3.666l20.333-3.332l4.667-22.334L112.384,235.913z"/>
		<path class="st4" d="M112.384,235.913l-30.146,41.551c0,0-6,7,3.333,13.668c9.333,6.666,18.667,17,39,26.666
			c0,0,30.667,15.334,71,3.666l20.333-3.332l4.667-22.334L112.384,235.913z"/>
	</g>
	<g class="st23">
		<defs>
			<rect id="SVGID_13_" x="-731.527" y="-211.76" width="1950" height="841.891"/>
		</defs>
		<clipPath id="SVGID_14_">
			<use xlink:href="#SVGID_13_"  style="overflow:visible;"/>
		</clipPath>
		<path class="st9" d="M97.515,254.467l-3.667,7c0,0,30.042,21.166,66.667,9l-15.167-21.834
			C145.348,248.633,142.015,262.633,97.515,254.467"/>
		<path class="st41" d="M97.515,254.467l-3.667,7c0,0,30.042,21.166,66.667,9l-15.167-21.834
			C145.348,248.633,142.015,262.633,97.515,254.467z"/>
	</g>
	<g class="st23">
		<defs>
			<rect id="SVGID_15_" x="-731.527" y="-211.76" width="1950" height="841.891"/>
		</defs>
		<clipPath id="SVGID_16_">
			<use xlink:href="#SVGID_15_"  style="overflow:visible;"/>
		</clipPath>
		<path class="st5" d="M206.521,330.485l-1,13h2c0,0,1.215-11.625,1.17-13.5L206.521,330.485z"/>
		<path class="st32" d="M206.521,330.485l-1,13h2c0,0,1.215-11.625,1.17-13.5L206.521,330.485z"/>
		<path class="st5" d="M177.723,283.506c0,0,11.125,23.211,22.625,29.418l2.5-2.918c0,0-18.891-13.875-22.946-27.625
			c-4.054-13.75,0-0.625,0-0.625L177.723,283.506z"/>
		<path class="st32" d="M177.723,283.506c0,0,11.125,23.211,22.625,29.418l2.5-2.918c0,0-18.891-13.875-22.946-27.625
			c-4.054-13.75,0-0.625,0-0.625L177.723,283.506z"/>
		<path class="st5" d="M224.599,319.747c0,8.146-6.604,14.75-14.75,14.75c-8.146,0-14.75-6.604-14.75-14.75
			c0-8.145,6.604-14.75,14.75-14.75C217.994,304.997,224.599,311.602,224.599,319.747"/>
		<circle class="st32" cx="209.848" cy="319.747" r="14.75"/>
		<path class="st18" d="M221.224,315.381c0,3.105-1.02,6.375-4.125,6.375c-0.748,0-3.39-0.406-5.375-2.01
			c-2.138-1.725-3.599-4.682-3.599-5.486c0-1.672-0.479-4.242,0.599-5.629c0.924-1.191,3.293-1.332,4.729-1.332
			C216.558,307.299,221.224,312.274,221.224,315.381"/>
	</g>
	<g class="st23">
		<defs>
			<rect id="SVGID_17_" x="-731.527" y="-211.76" width="1950" height="841.891"/>
		</defs>
		<clipPath id="SVGID_18_">
			<use xlink:href="#SVGID_17_"  style="overflow:visible;"/>
		</clipPath>
		<path class="st24" d="M87.223,229.006c0,0-11.369,2.053-11.101,16.531c0,0-0.667,11.209,24.666,11.209
			c0,0,38.667-0.084,49.667-11.209l-14.333-30.459C136.122,215.079,84.033,230.168,87.223,229.006"/>
		<path class="st22" d="M87.223,229.006c0,0-11.369,2.053-11.101,16.531c0,0-0.667,11.209,24.666,11.209
			c0,0,38.667-0.084,49.667-11.209l-14.333-30.459C136.122,215.079,84.033,230.168,87.223,229.006z"/>
		<path class="st24" d="M236.14,266.694l-23.885,34.143c0,0,41.217,33.295,85.217,30.629c44-2.668,13.668-15.668,13.668-15.668
			S250.499,283.973,236.14,266.694"/>
		<path class="st22" d="M236.14,266.694l-23.885,34.143c0,0,41.217,33.295,85.217,30.629c44-2.668,13.668-15.668,13.668-15.668
			S250.499,283.973,236.14,266.694z"/>
		<path class="st7" d="M182.665,304.51c0,1.525-1.237,2.762-2.763,2.762c-1.526,0-2.762-1.236-2.762-2.762
			c0-1.527,1.236-2.764,2.762-2.764C181.428,301.747,182.665,302.983,182.665,304.51"/>
		<circle class="st22" cx="179.903" cy="304.51" r="2.762"/>
		<path class="st7" d="M175.04,314.26c0,1.525-1.237,2.762-2.763,2.762c-1.526,0-2.762-1.236-2.762-2.762
			c0-1.527,1.236-2.764,2.762-2.764C173.803,311.497,175.04,312.733,175.04,314.26"/>
		<circle class="st22" cx="172.278" cy="314.26" r="2.762"/>
		<path class="st7" d="M166.04,322.51c0,1.525-1.237,2.762-2.763,2.762c-1.526,0-2.762-1.236-2.762-2.762
			c0-1.527,1.236-2.764,2.762-2.764C164.803,319.747,166.04,320.983,166.04,322.51"/>
		<circle class="st22" cx="163.278" cy="322.51" r="2.762"/>
	</g>
	<polygon class="st13" points="347.849,315.204 333.806,316.797 335.306,324.831 349.64,323.797 	"/>
	<polygon class="st45" points="347.849,315.204 333.806,316.797 335.306,324.831 349.64,323.797 	"/>
	<g class="st23">
		<defs>
			<rect id="SVGID_19_" x="-731.527" y="-211.76" width="1950" height="841.891"/>
		</defs>
		<clipPath id="SVGID_20_">
			<use xlink:href="#SVGID_19_"  style="overflow:visible;"/>
		</clipPath>
		<path class="st2" d="M286.474,335.963c0,0-4.668,2.5-6-1.5c0,0-6.168-14.688,1.332-14.76l46-6.572c0,0,9.834-2.021,9.168,6.572
			l0.031,5.928c0,0,1.469,3.666-5.031,4.166S286.474,335.963,286.474,335.963"/>
		<path class="st21" d="M286.474,335.963c0,0-4.668,2.5-6-1.5c0,0-6.168-14.688,1.332-14.76l46-6.572c0,0,9.834-2.021,9.168,6.572
			l0.031,5.928c0,0,1.469,3.666-5.031,4.166S286.474,335.963,286.474,335.963z"/>
		<path class="st2" d="M476.64,301.754c0-5.539-0.334-11.957-3-20.791c-1.947-6.453-23.525,7.291-40.834,7.291
			c-28.582,0-76.99,2.738-86.807,19.93c-3.344,5.857-1.748,18.148,0.475,21.07c6.313,8.303,25.23,15.928,61.832,11.168
			C445.474,335.588,476.64,312.186,476.64,301.754"/>
		<path class="st21" d="M476.64,301.754c0-5.539-0.334-11.957-3-20.791c-1.947-6.453-23.525,7.291-40.834,7.291
			c-28.582,0-76.99,2.738-86.807,19.93c-3.344,5.857-1.748,18.148,0.475,21.07c6.313,8.303,25.23,15.928,61.832,11.168
			C445.474,335.588,476.64,312.186,476.64,301.754z"/>
		<path class="st2" d="M473.64,285.848c0-10.43-6.922-13.5-43.834-13.5c-36.91,0-86.332,30.57-86.332,41
			c0,10.432,25.23,15.928,61.832,11.168C442.474,319.682,473.64,296.28,473.64,285.848"/>
		<path class="st21" d="M473.64,285.848c0-10.43-6.922-13.5-43.834-13.5c-36.91,0-86.332,30.57-86.332,41
			c0,10.432,25.23,15.928,61.832,11.168C442.474,319.682,473.64,296.28,473.64,285.848z"/>
	</g>
	<g class="st23">
		<defs>
			<rect id="SVGID_21_" x="-731.527" y="-211.76" width="1950" height="841.891"/>
		</defs>
		<clipPath id="SVGID_22_">
			<use xlink:href="#SVGID_21_"  style="overflow:visible;"/>
		</clipPath>
		<path class="st34" d="M456.474,285.997c0-3.295-6.963-3.365-12.75-3.533c-10.455-0.303-24.428,2.184-38.75,6.793
			c-11.889,3.826-20.686,6.787-28.75,10.293c-6.691,2.906-13.75,6.221-13.75,10.414c0,9.252,25.082,6.584,48.875,1.709
			C436.327,306.555,456.474,295.249,456.474,285.997"/>
		<path class="st16" d="M456.474,285.997c0-3.295-6.963-3.365-12.75-3.533c-10.455-0.303-24.428,2.184-38.75,6.793
			c-11.889,3.826-20.686,6.787-28.75,10.293c-6.691,2.906-13.75,6.221-13.75,10.414c0,9.252,25.082,6.584,48.875,1.709
			C436.327,306.555,456.474,295.249,456.474,285.997z"/>
		<path class="st10" d="M441.349,287.815c0-1.156-2.361-0.99-4.324-1.049c-3.545-0.105-8.283,0.576-13.141,2.191
			c-4.031,1.342-6.844,2.672-9.578,3.902c-2.27,1.018-4.832,1.889-4.832,3.359c0,3.244,8.449,1.738,16.572,0.6
			C434.614,295.616,441.349,291.059,441.349,287.815"/>
	</g>
	<g class="st23">
		<defs>
			<rect id="SVGID_23_" x="-731.527" y="-211.76" width="1950" height="841.891"/>
		</defs>
		<clipPath id="SVGID_24_">
			<use xlink:href="#SVGID_23_"  style="overflow:visible;"/>
		</clipPath>
		<path class="st28" d="M313.22,310.704c0,0-6.668,2-4.5,8.168c0,0,2,2.5,4.5-1.168c0,0,4.707-3.586,2.832-5.666
			C315.198,311.09,314.784,310.85,313.22,310.704"/>
		<path class="st0" d="M313.22,310.704c0,0-6.668,2-4.5,8.168c0,0,2,2.5,4.5-1.168c0,0,4.707-3.586,2.832-5.666
			C315.198,311.09,314.784,310.85,313.22,310.704z"/>
	</g>
	<g class="st23">
		<defs>
			<rect id="SVGID_25_" x="-731.527" y="-211.76" width="1950" height="841.891"/>
		</defs>
		<clipPath id="SVGID_26_">
			<use xlink:href="#SVGID_25_"  style="overflow:visible;"/>
		</clipPath>
		<path class="st36" d="M274.14,55.464c0,0-143.333,13.333-152,132c0,0-3,55.333,29.333,79.667c0,0,20,20.125,43.334,29
			c0,0,27,11.334,62.333,4.334c0,0,26.666-7.668,30.666-12.334c0,0,26.668,9,42.334,8c0,0,37.334-1.334,58-25.666
			c0,0,47-47,15.666-102.334C372.474,112.797,384.474,104.131,274.14,55.464"/>
		<path class="st40" d="M274.14,55.464c0,0-143.333,13.333-152,132c0,0-3,55.333,29.333,79.667c0,0,20,20.125,43.334,29
			c0,0,27,11.334,62.333,4.334c0,0,26.666-7.668,30.666-12.334c0,0,26.668,9,42.334,8c0,0,37.334-1.334,58-25.666
			c0,0,47-47,15.666-102.334C372.474,112.797,384.474,104.131,274.14,55.464z"/>
		<path class="st40" d="M287.806,288.131c0,0,24.043-17.375,33.293-42.875"/>
		<path class="st35" d="M318.81,329.049c0,0,0.311-5.031-4.031-5.219c-4.344-0.188-4.438,5-4.438,5v2.344
			c0,0-1.875-5.75-4.596-5.313c-2.717,0.438-4.248,2.313-3.998,7.094c0,0-3.031-5.6-5.281-4.566
			c-2.25,1.035-1.313,6.223-1.313,6.223s-3.844-6.875-6.031-3.063s1.813,8,1.813,8s4.828,2.225,12.574,0.773
			c0.045-0.008,0.088-0.016,0.133-0.023c3.133-0.602,5.689-2.783,7.998-2.711c3.223,0.105,4.791-0.791,5.771-2.082
			C317.411,335.506,319.56,333.862,318.81,329.049"/>
		<path class="st40" d="M318.81,329.049c0,0,0.311-5.031-4.031-5.219c-4.344-0.188-4.438,5-4.438,5v2.344
			c0,0-1.875-5.75-4.596-5.313c-2.717,0.438-4.248,2.313-3.998,7.094c0,0-3.031-5.6-5.281-4.566
			c-2.25,1.035-1.313,6.223-1.313,6.223s-3.844-6.875-6.031-3.063s1.813,8,1.813,8s4.828,2.225,12.574,0.773
			c0.045-0.008,0.088-0.016,0.133-0.023c3.133-0.602,5.689-2.783,7.998-2.711c3.223,0.105,4.791-0.791,5.771-2.082
			C317.411,335.506,319.56,333.862,318.81,329.049z"/>
	</g>
	<g class="st23">
		<defs>
			<rect id="SVGID_27_" x="139.473" y="191.13" width="148" height="137.001"/>
		</defs>
		<clipPath id="SVGID_28_">
			<use xlink:href="#SVGID_27_"  style="overflow:visible;"/>
		</clipPath>
		<g style="clip-path:url(#SVGID_28_);">
			
				<image style="overflow:visible;" width="148" height="137" xlink:href="2762A468.png"  transform="matrix(1 0 0 1 139.4731 191.1304)">
			</image>
		</g>
	</g>
	<g class="st23">
		<defs>
			<rect id="SVGID_29_" x="316.474" y="202.13" width="127" height="123.001"/>
		</defs>
		<clipPath id="SVGID_30_">
			<use xlink:href="#SVGID_29_"  style="overflow:visible;"/>
		</clipPath>
		<g style="clip-path:url(#SVGID_30_);">
			
				<image style="overflow:visible;" width="127" height="123" xlink:href="2762A46F.png"  transform="matrix(1 0 0 1 316.4736 202.1304)">
			</image>
		</g>
	</g>
	<g class="st23">
		<defs>
			<rect id="SVGID_31_" x="251.474" y="214.131" width="112" height="113"/>
		</defs>
		<clipPath id="SVGID_32_">
			<use xlink:href="#SVGID_31_"  style="overflow:visible;"/>
		</clipPath>
		<g class="st43">
			<defs>
				<rect id="SVGID_33_" x="251.474" y="214.131" width="112" height="113"/>
			</defs>
			<clipPath id="SVGID_34_">
				<use xlink:href="#SVGID_33_"  style="overflow:visible;"/>
			</clipPath>
			<g style="clip-path:url(#SVGID_34_);">
				
					<image style="overflow:visible;" width="112" height="113" xlink:href="2762A46B.png"  transform="matrix(1 0 0 1 251.4736 214.1313)">
				</image>
			</g>
		</g>
	</g>
	<line class="st12" x1="262.54" y1="195.031" x2="283.54" y2="208.282"/>
	<g class="st23">
		<defs>
			<rect id="SVGID_35_" x="-731.527" y="-211.76" width="1950" height="841.891"/>
		</defs>
		<clipPath id="SVGID_36_">
			<use xlink:href="#SVGID_35_"  style="overflow:visible;"/>
		</clipPath>
		<path class="st39" d="M361.849,219.237c0,0-13.75-1.605-14,9.27c0,0,0.25,7.625,12.375,8.125c0,0,18.125,2,27.125-3.375
			c0,0,6.125-2.125,5.5-8.625s-9.875-6.625-9.875-6.625S365.724,219.221,361.849,219.237"/>
		<path class="st44" d="M361.849,219.237c0,0-13.75-1.605-14,9.27c0,0,0.25,7.625,12.375,8.125c0,0,18.125,2,27.125-3.375
			c0,0,6.125-2.125,5.5-8.625s-9.875-6.625-9.875-6.625S365.724,219.221,361.849,219.237z"/>
		<line class="st47" x1="361.974" y1="208.282" x2="382.099" y2="201.656"/>
		<path class="st38" d="M250.779,218.833c0,0-13.75-1.604-14,9.271c0,0,0.25,7.625,12.375,8.125c0,0,18.125,2,27.125-3.375
			c0,0,6.126-2.125,5.501-8.625s-9.876-6.625-9.876-6.625S254.655,218.819,250.779,218.833z"/>
	</g>
	<g class="st23">
		<defs>
			<rect id="SVGID_37_" x="-731.527" y="-211.76" width="1950" height="841.891"/>
		</defs>
		<clipPath id="SVGID_38_">
			<use xlink:href="#SVGID_37_"  style="overflow:visible;"/>
		</clipPath>
		<path class="st33" d="M367.263,219.012c0,0-6.664,2.16-7.748,7.451c0,0-1.209,9.135,2.459,10.318c0,0,13.176,0.375,14.838-0.326
			c1.662-0.699,3.037-6.443,2.787-8.508c-0.25-2.066-0.371-9.197-3.998-9.443C371.974,218.256,367.263,219.012,367.263,219.012"/>
		<path class="st33" d="M255.013,218.487c0,0-6.664,2.162-7.748,7.453c0,0-1.209,9.135,2.459,10.318c0,0,13.176,0.373,14.838-0.328
			c1.662-0.699,3.037-6.443,2.787-8.508c-0.25-2.066-0.371-9.195-3.998-9.443S255.013,218.487,255.013,218.487"/>
	</g>
	<g class="st23">
		<defs>
			<rect id="SVGID_39_" x="-731.527" y="-211.76" width="1950" height="841.891"/>
		</defs>
		<clipPath id="SVGID_40_">
			<use xlink:href="#SVGID_39_"  style="overflow:visible;"/>
		</clipPath>
	</g>
	<g class="st23">
		<defs>
			<rect id="SVGID_41_" x="-731.527" y="-211.76" width="1950" height="841.891"/>
		</defs>
		<clipPath id="SVGID_42_">
			<use xlink:href="#SVGID_41_"  style="overflow:visible;"/>
		</clipPath>
		<path class="st8" d="M265.474,47.63c0,0-115,5.5-140,111.25c0,0,72.5,43.751,124.5-30.75c0,0,83,95.001,187,44.75
			c0,0-15.043-5.75-22.396-21.75S371.724,38.63,265.474,47.63"/>
	</g>
	<g class="st23">
		<defs>
			<rect id="SVGID_43_" x="-731.527" y="-211.76" width="1950" height="841.891"/>
		</defs>
		<clipPath id="SVGID_44_">
			<use xlink:href="#SVGID_43_"  style="overflow:visible;"/>
		</clipPath>
		<path class="st26" d="M370.37,103.38c0,0-12.896-12.75-8.396,4.75c0,0,3.375,5.563-0.188,2.312c0,0-5.125-2.562-2.188,5.251
			c0,0,8.688,17.187,14.5,19.812c0,0,10,6.75,7.5-2.063c0,0,11.063,9.376,7-6.125C388.599,127.317,380.644,110.692,370.37,103.38"/>
		<path class="st26" d="M366.661,131.943c0,0-13.439-9.75-6.875,5.187c0,0,5.875,7.313,7.936,8.188c0,0,11.689,7.312,7.189-4.562
			C374.911,140.756,369.474,133.068,366.661,131.943"/>
		<path class="st26" d="M364.05,144.448c0,0-8.744-6.344-4.473,3.375c0,0,3.822,4.758,5.164,5.328c0,0,7.605,4.758,4.678-2.969
			C369.419,150.182,365.88,145.18,364.05,144.448"/>
	</g>
	<g class="st23">
		<defs>
			<rect id="SVGID_45_" x="-731.527" y="-211.76" width="1950" height="841.891"/>
		</defs>
		<clipPath id="SVGID_46_">
			<use xlink:href="#SVGID_45_"  style="overflow:visible;"/>
		</clipPath>
		<path class="st6" d="M209.474,21.63c0,0-35.75,19.625-38.375,21.125s-19.75,17.25-16.5,35.5c0,0,5.125,22,17.875,27
			c0,0,14,7.75,32.875,2.625c0,0,31.75-3.875,50.375-40.25c0,0,9.375-31.5-12.25-42.5S209.474,21.63,209.474,21.63"/>
		<path class="st14" d="M209.474,21.63c0,0-35.75,19.625-38.375,21.125s-19.75,17.25-16.5,35.5c0,0,5.125,22,17.875,27
			c0,0,14,7.75,32.875,2.625c0,0,31.75-3.875,50.375-40.25c0,0,9.375-31.5-12.25-42.5S209.474,21.63,209.474,21.63z"/>
	</g>
	<g class="st23">
		<defs>
			<rect id="SVGID_47_" x="-731.527" y="-211.76" width="1950" height="841.891"/>
		</defs>
		<clipPath id="SVGID_48_">
			<use xlink:href="#SVGID_47_"  style="overflow:visible;"/>
		</clipPath>
		<path class="st15" d="M186.932,21.672c0,0-1.05-0.818-2.167-0.503c-2.767,0.78-7.545,3.009-8.791,5.086c0,0-3.25,3.875,1.875,6.75
			l9,6.75c0,0,2.125,2.25,5.375,0s1.25-9.375,1.25-9.375S189.515,22.755,186.932,21.672"/>
		<path class="st48" d="M186.932,21.672c0,0-1.05-0.818-2.167-0.503c-2.767,0.78-7.545,3.009-8.791,5.086c0,0-3.25,3.875,1.875,6.75
			l9,6.75c0,0,2.125,2.25,5.375,0s1.25-9.375,1.25-9.375S189.515,22.755,186.932,21.672z"/>
		<g class="st29">
			<g>
				<defs>
					<rect id="SVGID_49_" x="165.534" y="37.064" width="77.146" height="46.083"/>
				</defs>
				<clipPath id="SVGID_50_">
					<use xlink:href="#SVGID_49_"  style="overflow:visible;"/>
				</clipPath>
				<path class="st31" d="M176.348,72.13c0,0-13.375,2.125-10.375,9.375s57.25-10.25,75.875-38c0,0,1.875-3.125,0-5.125
					s-5-1.125-5-1.125S214.599,62.755,176.348,72.13"/>
			</g>
		</g>
		<g class="st29">
			<g>
				<defs>
					<rect id="SVGID_51_" x="174.284" y="54.689" width="77.146" height="46.083"/>
				</defs>
				<clipPath id="SVGID_52_">
					<use xlink:href="#SVGID_51_"  style="overflow:visible;"/>
				</clipPath>
				<path class="st37" d="M185.098,89.755c0,0-13.375,2.125-10.375,9.375s57.25-10.25,75.875-38c0,0,1.875-3.125,0-5.125
					s-5-1.125-5-1.125S223.349,80.38,185.098,89.755"/>
			</g>
		</g>
		<g class="st29">
			<g>
				<defs>
					<rect id="SVGID_53_" x="175.921" y="62.303" width="26.43" height="42.566"/>
				</defs>
				<clipPath id="SVGID_54_">
					<use xlink:href="#SVGID_53_"  style="overflow:visible;"/>
				</clipPath>
				<path class="st42" d="M184.52,65.505c0,0-2.265-4.531-5.453-2.813c-3.187,1.719-4,2.751-2.218,6.969
					c1.781,4.219,9.875,26.252,15.5,31.111c0,0,4.125,5.546,7.375,3.733c0,0,5.375-1.687,0.75-8.125S184.503,69.692,184.52,65.505"
					/>
			</g>
		</g>
		<g class="st29">
			<g>
				<defs>
					<rect id="SVGID_55_" x="194.082" y="53.803" width="26.429" height="42.566"/>
				</defs>
				<clipPath id="SVGID_56_">
					<use xlink:href="#SVGID_55_"  style="overflow:visible;"/>
				</clipPath>
				<path class="st1" d="M202.68,57.005c0,0-2.265-4.531-5.453-2.813c-3.187,1.719-4,2.751-2.218,6.969
					c1.781,4.219,9.875,26.252,15.5,31.111c0,0,4.125,5.546,7.375,3.733c0,0,5.375-1.687,0.75-8.125S202.664,61.192,202.68,57.005"
					/>
			</g>
		</g>
		<g class="st29">
			<g>
				<defs>
					<rect id="SVGID_57_" x="208.99" y="43.001" width="27.243" height="42.075"/>
				</defs>
				<clipPath id="SVGID_58_">
					<use xlink:href="#SVGID_57_"  style="overflow:visible;"/>
				</clipPath>
				<path class="st11" d="M209.979,50.281c0,0-2.58-4.36,0.592-6.107s4.479-1.871,7.059,1.913
					c2.58,3.784,16.709,22.528,17.742,29.889c0,0,2.424,6.472-0.859,8.221c0,0-4.332,3.602-7.235-3.774
					C224.376,73.047,213.507,52.537,209.979,50.281"/>
			</g>
		</g>
		<g class="st29">
			<g>
				<defs>
					<rect id="SVGID_59_" x="224.865" y="32.766" width="23.743" height="42.113"/>
				</defs>
				<clipPath id="SVGID_60_">
					<use xlink:href="#SVGID_59_"  style="overflow:visible;"/>
				</clipPath>
				<path class="st25" d="M225.854,40.046c0,0-2.58-4.36,0.592-6.107s4.479-1.871,7.059,1.913
					c2.58,3.784,13.434,23.293,14.469,30.653c0,0,2.055,5.835-1.23,7.584c0,0-3.367,3.417-6.27-3.959
					C237.57,62.754,229.382,42.302,225.854,40.046"/>
			</g>
		</g>
	</g>
</g>
</svg>
