<?xml version="1.0" encoding="utf-8"?>
<!-- Generator: Adobe Illustrator 16.0.0, SVG Export Plug-In . SVG Version: 6.00 Build 0)  -->
<!DOCTYPE svg PUBLIC "-//W3C//DTD SVG 1.1//EN" "http://www.w3.org/Graphics/SVG/1.1/DTD/svg11.dtd">
<svg version="1.1" id="Layer_1" xmlns="http://www.w3.org/2000/svg" xmlns:xlink="http://www.w3.org/1999/xlink" x="0px" y="0px"
	 width="501.05px" height="405.041px" viewBox="0 0 501.05 405.041" style="enable-background:new 0 0 501.05 405.041;"
	 xml:space="preserve">
<style type="text/css">
<![CDATA[
	.st0{clip-path:url(#SVGID_24_);fill:none;stroke:#56401D;stroke-miterlimit:10;}
	.st1{clip-path:url(#SVGID_56_);fill:#785623;}
	.st2{clip-path:url(#SVGID_20_);fill:#816661;}
	.st3{clip-path:url(#SVGID_12_);fill:#DDB570;}
	.st4{clip-path:url(#SVGID_12_);fill:none;stroke:#56401D;stroke-miterlimit:10;}
	.st5{clip-path:url(#SVGID_16_);fill:#312A20;}
	.st6{clip-path:url(#SVGID_46_);fill:#A47132;}
	.st7{clip-path:url(#SVGID_18_);fill:#64461D;}
	.st8{clip-path:url(#SVGID_42_);fill:#1F2025;}
	.st9{clip-path:url(#SVGID_14_);fill:#A47132;}
	.st10{clip-path:url(#SVGID_22_);fill:#E7EFF2;}
	.st11{clip-path:url(#SVGID_58_);fill:#785623;}
	.st12{clip-path:url(#SVGID_2_);fill:none;stroke:#1F2025;stroke-linecap:round;stroke-linejoin:round;stroke-miterlimit:10;}
	.st13{clip-path:url(#SVGID_2_);fill:#7A7A7A;}
	.st14{clip-path:url(#SVGID_46_);fill:none;stroke:#56401D;stroke-miterlimit:10;}
	.st15{clip-path:url(#SVGID_48_);fill:#A47132;}
	.st16{clip-path:url(#SVGID_22_);fill:none;stroke:#56401D;stroke-miterlimit:10;}
	.st17{clip-path:url(#SVGID_8_);fill:#322A21;}
	.st18{clip-path:url(#SVGID_16_);fill:#A6A783;}
	.st19{clip-path:url(#SVGID_8_);fill:none;stroke:#56401D;stroke-miterlimit:10;}
	.st20{clip-path:url(#SVGID_6_);fill:#A47132;}
	.st21{clip-path:url(#SVGID_20_);fill:none;stroke:#56401D;stroke-miterlimit:10;}
	.st22{clip-path:url(#SVGID_18_);fill:none;stroke:#56401D;stroke-miterlimit:10;}
	.st23{clip-path:url(#SVGID_2_);}
	.st24{clip-path:url(#SVGID_18_);fill:#DDB570;}
	.st25{clip-path:url(#SVGID_60_);fill:#785623;}
	.st26{clip-path:url(#SVGID_44_);fill:#C3C3CC;}
	.st27{clip-path:url(#SVGID_6_);fill:none;stroke:#56401D;stroke-miterlimit:10;}
	.st28{clip-path:url(#SVGID_24_);fill:#F1B4A6;}
	.st29{opacity:0.5;clip-path:url(#SVGID_48_);}
	.st30{clip-path:url(#SVGID_6_);fill:#E5D6CF;}
	.st31{clip-path:url(#SVGID_50_);fill:#785623;}
	.st32{clip-path:url(#SVGID_16_);fill:none;stroke:#56401D;stroke-miterlimit:10;}
	.st33{clip-path:url(#SVGID_38_);fill:#1F2025;animation:st3ani 1s infinite alternate linear;}
	@keyframes st3ani{
		to{transform:translateX(10px)}
	}
	.st3.rt{animation:st3ani 1s 1s infinite alternate linear;}
	@keyframes st3ani{
		to{transform:translateX(-10px)}
	}
	.st34{clip-path:url(#SVGID_22_);fill:#CEE5ED;}
	.st35{clip-path:url(#SVGID_26_);fill:#F1B4A6;}
	.st36{clip-path:url(#SVGID_26_);fill:#F2BBAC;}
	.st37{clip-path:url(#SVGID_52_);fill:#785623;}
	.st38{clip-path:url(#SVGID_36_);fill:#FFFFFF;}
	.st39{clip-path:url(#SVGID_26_);fill:none;stroke:#56401D;stroke-miterlimit:10;}
	.st40{clip-path:url(#SVGID_14_);fill:none;stroke:#56401D;stroke-miterlimit:10;}
	.st41{clip-path:url(#SVGID_54_);fill:#785623;}
	.st42{clip-path:url(#SVGID_32_);}
	.st43{clip-path:url(#SVGID_36_);fill:none;stroke:#1F2025;stroke-miterlimit:10;}
	.st44{clip-path:url(#SVGID_2_);fill:none;stroke:#56401D;stroke-miterlimit:10;}
	.st45{clip-path:url(#SVGID_10_);fill:#ACB08D;}
	.st46{clip-path:url(#SVGID_36_);fill:none;stroke:#1F2025;stroke-linecap:round;stroke-linejoin:round;stroke-miterlimit:10;}
	.st47{clip-path:url(#SVGID_48_);fill:none;stroke:#56401D;stroke-miterlimit:10;}
]]>
</style>
<g>
	<defs>
		<rect id="SVGID_1_" x="-721.794" y="-219.689" width="1950" height="841.89"/>
	</defs>
	<clipPath id="SVGID_2_">
		<use xlink:href="#SVGID_1_"  style="overflow:visible;"/>
	</clipPath>
	<g class="st23">
		<defs>
			<rect id="SVGID_3_" x="-27.628" y="11.201" width="560.001" height="380"/>
		</defs>
		<clipPath id="SVGID_4_">
			<use xlink:href="#SVGID_3_"  style="overflow:visible;"/>
		</clipPath>
	</g>
	<g class="st23">
		<defs>
			<rect id="SVGID_5_" x="-721.794" y="-219.689" width="1950" height="841.89"/>
		</defs>
		<clipPath id="SVGID_6_">
			<use xlink:href="#SVGID_5_"  style="overflow:visible;"/>
		</clipPath>
		<path class="st30" d="M28.04,350.368l10.833,21.941c0,0,12.72-3.049,28.575-7.349l-12.666-23.295L28.04,350.368z"/>
		<path class="st27" d="M28.04,350.368l10.833,21.941c0,0,12.72-3.049,28.575-7.349l-12.666-23.295L28.04,350.368z"/>
		<path class="st20" d="M208.206,306.33c-30.125-27.629-107.75-33.382-107.75-33.382s-20.75,0.003-28,37.753
			c0,0-4.875,25.25-16.437,30.563l-1.237,0.402l12.666,23.295c18.856-5.114,42.147-11.999,53.758-17.635c0,0,10.875-9.125,55.25-2.5
			c0,0,23.743,5.457,30.438,14.694l26.788-4.102C230.615,339.929,223.697,320.537,208.206,306.33"/>
		<path class="st27" d="M208.206,306.33c-30.125-27.629-107.75-33.382-107.75-33.382s-20.75,0.003-28,37.753
			c0,0-4.875,25.25-16.437,30.563l-1.237,0.402l12.666,23.295c18.856-5.114,42.147-11.999,53.758-17.635c0,0,10.875-9.125,55.25-2.5
			c0,0,23.743,5.457,30.438,14.694l26.788-4.102C230.615,339.929,223.697,320.537,208.206,306.33z"/>
		<path class="st30" d="M206.894,359.52c0.104,0.144,0.217,0.285,0.312,0.431c0,0,5.5,18.708,5.375,21.583
			s23.459-0.333,23.459-0.333s0.54-11.149-2.357-25.782L206.894,359.52z"/>
		<path class="st27" d="M206.894,359.52c0.104,0.144,0.217,0.285,0.312,0.431c0,0,5.5,18.708,5.375,21.583
			s23.459-0.333,23.459-0.333s0.54-11.149-2.357-25.782L206.894,359.52z"/>
	</g>
	<g class="st23">
		<defs>
			<rect id="SVGID_7_" x="-721.794" y="-219.689" width="1950" height="841.89"/>
		</defs>
		<clipPath id="SVGID_8_">
			<use xlink:href="#SVGID_7_"  style="overflow:visible;"/>
		</clipPath>
		<path class="st17" d="M39.148,345.875c0,0-3.109-5.175-8.776-2.842c0,0-13.333,0.834-8.5,31.834c0,0,3.334,13.333,17.667,14.166
			c0,0,12.667-1,9.333-9.833c0,0-1.833-6.833-1.833-8.5c0,0-11-0.5-9-22.833L39.148,345.875z"/>
		<path class="st19" d="M39.148,345.875c0,0-3.109-5.175-8.776-2.842c0,0-13.333,0.834-8.5,31.834c0,0,3.334,13.333,17.667,14.166
			c0,0,12.667-1,9.333-9.833c0,0-1.833-6.833-1.833-8.5c0,0-11-0.5-9-22.833L39.148,345.875z"/>
		<path class="st17" d="M210.04,371.368c0,0,19.816,4.492,25.649-1.508c0,0,12.351,3.008,15.018,7.841c0,0,5.833,9.5-8,11.5
			c0,0-21.084,2.5-30.125,0c0,0-8.542-3.5-6.042-10.667C209.04,371.368,210.04,371.368,210.04,371.368"/>
		<path class="st19" d="M210.04,371.368c0,0,19.816,4.492,25.649-1.508c0,0,12.351,3.008,15.018,7.841c0,0,5.833,9.5-8,11.5
			c0,0-21.084,2.5-30.125,0c0,0-8.542-3.5-6.042-10.667C209.04,371.368,210.04,371.368,210.04,371.368z"/>
	</g>
	<g class="st23">
		<defs>
			<rect id="SVGID_9_" x="-721.794" y="-219.689" width="1950" height="841.89"/>
		</defs>
		<clipPath id="SVGID_10_">
			<use xlink:href="#SVGID_9_"  style="overflow:visible;"/>
		</clipPath>
		<path class="st45" d="M237.935,376.461c0,1.294-1.049,2.344-2.344,2.344c-1.294,0-2.343-1.05-2.343-2.344
			c0-1.295,1.049-2.344,2.343-2.344C236.886,374.118,237.935,375.167,237.935,376.461"/>
		<path class="st45" d="M242.415,376.951c0,0-6.823-0.012-2.708,5.333c0,0,1.391,1.767,3.786,1.947
			c0.07,0.005,0.142,0.009,0.214,0.012c2.5,0.083,3.125-2,3.125-2s0.958-1.875-0.75-3.709
			C244.373,376.701,242.415,376.951,242.415,376.951"/>
		<path class="st45" d="M39.499,377.475c0,0-6.119,3.018-0.06,5.98c0,0,2.031,0.966,4.257,0.064
			c0.066-0.026,0.132-0.055,0.197-0.084c2.277-1.035,1.913-3.18,1.913-3.18s0.026-2.105-2.319-2.99
			C41.143,376.381,39.499,377.475,39.499,377.475"/>
	</g>
	<g class="st23">
		<defs>
			<rect id="SVGID_11_" x="-721.794" y="-219.689" width="1950" height="841.89"/>
		</defs>
		<clipPath id="SVGID_12_">
			<use xlink:href="#SVGID_11_"  style="overflow:visible;"/>
		</clipPath>
		<path class="st3" d="M122.117,227.982l-30.146,41.552c0,0-6,7,3.333,13.667s18.667,17,39,26.667c0,0,30.667,15.333,71,3.666
			l20.333-3.333l4.667-22.333L122.117,227.982z"/>
		<path class="st4" d="M122.117,227.982l-30.146,41.552c0,0-6,7,3.333,13.667s18.667,17,39,26.667c0,0,30.667,15.333,71,3.666
			l20.333-3.333l4.667-22.333L122.117,227.982z"/>
	</g>
	<g class="st23">
		<defs>
			<rect id="SVGID_13_" x="-721.794" y="-219.689" width="1950" height="841.89"/>
		</defs>
		<clipPath id="SVGID_14_">
			<use xlink:href="#SVGID_13_"  style="overflow:visible;"/>
		</clipPath>
		<path class="st9" d="M107.248,246.537l-3.667,7c0,0,30.042,21.167,66.667,9l-15.167-21.833
			C155.081,240.704,151.748,254.704,107.248,246.537"/>
		<path class="st40" d="M107.248,246.537l-3.667,7c0,0,30.042,21.167,66.667,9l-15.167-21.833
			C155.081,240.704,151.748,254.704,107.248,246.537z"/>
	</g>
	<g class="st23">
		<defs>
			<rect id="SVGID_15_" x="-721.794" y="-219.689" width="1950" height="841.89"/>
		</defs>
		<clipPath id="SVGID_16_">
			<use xlink:href="#SVGID_15_"  style="overflow:visible;"/>
		</clipPath>
		<path class="st5" d="M216.254,322.555l-1,13h2c0,0,1.215-11.625,1.17-13.5L216.254,322.555z"/>
		<path class="st32" d="M216.254,322.555l-1,13h2c0,0,1.215-11.625,1.17-13.5L216.254,322.555z"/>
		<path class="st5" d="M187.456,275.576c0,0,11.125,23.211,22.625,29.418l2.5-2.918c0,0-18.891-13.875-22.946-27.625
			c-4.054-13.75,0-0.625,0-0.625L187.456,275.576z"/>
		<path class="st32" d="M187.456,275.576c0,0,11.125,23.211,22.625,29.418l2.5-2.918c0,0-18.891-13.875-22.946-27.625
			c-4.054-13.75,0-0.625,0-0.625L187.456,275.576z"/>
		<path class="st5" d="M234.331,311.817c0,8.146-6.604,14.75-14.75,14.75s-14.75-6.604-14.75-14.75c0-8.146,6.604-14.75,14.75-14.75
			S234.331,303.671,234.331,311.817"/>
		<circle class="st32" cx="219.581" cy="311.817" r="14.75"/>
		<path class="st18" d="M230.956,307.451c0,3.106-1.019,6.375-4.125,6.375c-0.748,0-3.389-0.406-5.375-2.009
			c-2.137-1.725-3.598-4.683-3.598-5.487c0-1.672-0.48-4.241,0.598-5.629c0.925-1.191,3.293-1.332,4.729-1.332
			C226.291,299.369,230.956,304.344,230.956,307.451"/>
	</g>
	<g class="st23">
		<defs>
			<rect id="SVGID_17_" x="-721.794" y="-219.689" width="1950" height="841.89"/>
		</defs>
		<clipPath id="SVGID_18_">
			<use xlink:href="#SVGID_17_"  style="overflow:visible;"/>
		</clipPath>
		<path class="st24" d="M96.956,221.076c0,0-11.369,2.054-11.101,16.531c0,0-0.667,11.209,24.666,11.209
			c0,0,38.667-0.084,49.667-11.209l-14.333-30.458C145.855,207.149,93.766,222.238,96.956,221.076"/>
		<path class="st22" d="M96.956,221.076c0,0-11.369,2.054-11.101,16.531c0,0-0.667,11.209,24.666,11.209
			c0,0,38.667-0.084,49.667-11.209l-14.333-30.458C145.855,207.149,93.766,222.238,96.956,221.076z"/>
		<path class="st24" d="M245.873,258.763l-23.884,34.144c0,0,41.217,33.295,85.217,30.628c44-2.668,13.667-15.668,13.667-15.668
			S260.232,276.043,245.873,258.763"/>
		<path class="st22" d="M245.873,258.763l-23.884,34.144c0,0,41.217,33.295,85.217,30.628c44-2.668,13.667-15.668,13.667-15.668
			S260.232,276.043,245.873,258.763z"/>
		<path class="st7" d="M192.398,296.58c0,1.525-1.237,2.763-2.763,2.763c-1.526,0-2.762-1.237-2.762-2.763
			c0-1.526,1.236-2.763,2.762-2.763C191.161,293.817,192.398,295.053,192.398,296.58"/>
		<circle class="st22" cx="189.635" cy="296.58" r="2.762"/>
		<path class="st7" d="M184.773,306.33c0,1.525-1.237,2.763-2.763,2.763c-1.526,0-2.762-1.237-2.762-2.763
			c0-1.526,1.236-2.763,2.762-2.763C183.536,303.567,184.773,304.803,184.773,306.33"/>
		<circle class="st22" cx="182.01" cy="306.33" r="2.762"/>
		<path class="st7" d="M175.773,314.58c0,1.525-1.237,2.763-2.763,2.763c-1.526,0-2.762-1.237-2.762-2.763
			c0-1.526,1.236-2.763,2.762-2.763C174.536,311.817,175.773,313.053,175.773,314.58"/>
		<circle class="st22" cx="173.01" cy="314.58" r="2.762"/>
	</g>
	<polygon class="st13" points="357.581,307.274 343.539,308.868 345.039,316.9 359.373,315.868 	"/>
	<polygon class="st44" points="357.581,307.274 343.539,308.868 345.039,316.9 359.373,315.868 	"/>
	<g class="st23">
		<defs>
			<rect id="SVGID_19_" x="-721.794" y="-219.689" width="1950" height="841.89"/>
		</defs>
		<clipPath id="SVGID_20_">
			<use xlink:href="#SVGID_19_"  style="overflow:visible;"/>
		</clipPath>
		<path class="st2" d="M296.206,328.034c0,0-4.667,2.5-6-1.5c0,0-6.167-14.688,1.333-14.761l46-6.572c0,0,9.834-2.021,9.167,6.572
			l0.032,5.928c0,0,1.468,3.667-5.032,4.167S296.206,328.034,296.206,328.034"/>
		<path class="st21" d="M296.206,328.034c0,0-4.667,2.5-6-1.5c0,0-6.167-14.688,1.333-14.761l46-6.572c0,0,9.834-2.021,9.167,6.572
			l0.032,5.928c0,0,1.468,3.667-5.032,4.167S296.206,328.034,296.206,328.034z"/>
		<path class="st2" d="M486.373,293.825c0-5.539-0.334-11.957-3-20.791c-1.948-6.453-23.525,7.291-40.834,7.291
			c-28.582,0-76.99,2.737-86.808,19.929c-3.344,5.858-1.747,18.149,0.475,21.071c6.313,8.303,25.23,15.927,61.833,11.167
			C455.206,327.659,486.373,304.255,486.373,293.825"/>
		<path class="st21" d="M486.373,293.825c0-5.539-0.334-11.957-3-20.791c-1.948-6.453-23.525,7.291-40.834,7.291
			c-28.582,0-76.99,2.737-86.808,19.929c-3.344,5.858-1.747,18.149,0.475,21.071c6.313,8.303,25.23,15.927,61.833,11.167
			C455.206,327.659,486.373,304.255,486.373,293.825z"/>
		<path class="st2" d="M483.373,277.918c0-10.43-6.923-13.5-43.834-13.5s-86.333,30.57-86.333,41
			c0,10.431,25.23,15.927,61.833,11.167C452.206,311.752,483.373,288.349,483.373,277.918"/>
		<path class="st21" d="M483.373,277.918c0-10.43-6.923-13.5-43.834-13.5s-86.333,30.57-86.333,41
			c0,10.431,25.23,15.927,61.833,11.167C452.206,311.752,483.373,288.349,483.373,277.918z"/>
	</g>
	<g class="st23">
		<defs>
			<rect id="SVGID_21_" x="-721.794" y="-219.689" width="1950" height="841.89"/>
		</defs>
		<clipPath id="SVGID_22_">
			<use xlink:href="#SVGID_21_"  style="overflow:visible;"/>
		</clipPath>
		<path class="st34" d="M466.206,278.067c0-3.296-6.963-3.365-12.75-3.533c-10.454-0.303-24.427,2.183-38.75,6.792
			c-11.889,3.826-20.686,6.788-28.75,10.293c-6.69,2.907-13.75,6.221-13.75,10.415c0,9.251,25.083,6.584,48.875,1.709
			C446.06,298.625,466.206,287.318,466.206,278.067"/>
		<path class="st16" d="M466.206,278.067c0-3.296-6.963-3.365-12.75-3.533c-10.454-0.303-24.427,2.183-38.75,6.792
			c-11.889,3.826-20.686,6.788-28.75,10.293c-6.69,2.907-13.75,6.221-13.75,10.415c0,9.251,25.083,6.584,48.875,1.709
			C446.06,298.625,466.206,287.318,466.206,278.067z"/>
		<path class="st10" d="M451.081,279.885c0-1.156-2.361-0.99-4.323-1.049c-3.545-0.106-8.283,0.575-13.141,2.191
			c-4.031,1.342-6.845,2.672-9.579,3.901c-2.27,1.019-4.832,1.89-4.832,3.359c0,3.244,8.449,1.739,16.573,0.6
			C444.347,287.686,451.081,283.128,451.081,279.885"/>
	</g>
	<g class="st23">
		<defs>
			<rect id="SVGID_23_" x="-721.794" y="-219.689" width="1950" height="841.89"/>
		</defs>
		<clipPath id="SVGID_24_">
			<use xlink:href="#SVGID_23_"  style="overflow:visible;"/>
		</clipPath>
		<path class="st28" d="M322.952,302.774c0,0-6.667,2-4.5,8.167c0,0,2,2.5,4.5-1.167c0,0,4.707-3.587,2.833-5.667
			C324.931,303.16,324.517,302.919,322.952,302.774"/>
		<path class="st0" d="M322.952,302.774c0,0-6.667,2-4.5,8.167c0,0,2,2.5,4.5-1.167c0,0,4.707-3.587,2.833-5.667
			C324.931,303.16,324.517,302.919,322.952,302.774z"/>
	</g>
	<g class="st23">
		<defs>
			<rect id="SVGID_25_" x="-721.794" y="-219.689" width="1950" height="841.89"/>
		</defs>
		<clipPath id="SVGID_26_">
			<use xlink:href="#SVGID_25_"  style="overflow:visible;"/>
		</clipPath>
		<path class="st36" d="M283.873,47.534c0,0-143.333,13.333-152,132c0,0-3,55.333,29.333,79.667c0,0,20,20.125,43.334,29
			c0,0,27,11.333,62.333,4.333c0,0,26.666-7.668,30.666-12.333c0,0,26.667,9,42.334,8c0,0,37.333-1.335,58-25.667
			c0,0,47-47,15.666-102.333C382.206,104.867,394.206,96.201,283.873,47.534"/>
		<path class="st39" d="M283.873,47.534c0,0-143.333,13.333-152,132c0,0-3,55.333,29.333,79.667c0,0,20,20.125,43.334,29
			c0,0,27,11.333,62.333,4.333c0,0,26.666-7.668,30.666-12.333c0,0,26.667,9,42.334,8c0,0,37.333-1.335,58-25.667
			c0,0,47-47,15.666-102.333C382.206,104.867,394.206,96.201,283.873,47.534z"/>
		<path class="st39" d="M297.539,280.201c0,0,24.042-17.375,33.292-42.875"/>
		<path class="st35" d="M328.542,321.119c0,0,0.312-5.031-4.031-5.219c-4.344-0.188-4.438,5-4.438,5v2.344
			c0,0-1.875-5.75-4.595-5.313c-2.718,0.438-4.249,2.313-3.999,7.094c0,0-3.031-5.599-5.281-4.565
			c-2.25,1.034-1.313,6.222-1.313,6.222s-3.844-6.874-6.031-3.063c-2.188,3.813,1.813,8,1.813,8s4.828,2.225,12.575,0.774
			c0.044-0.008,0.088-0.017,0.132-0.024c3.133-0.601,5.689-2.783,7.999-2.71c3.223,0.104,4.791-0.791,5.771-2.083
			C327.144,327.576,329.292,325.931,328.542,321.119"/>
		<path class="st39" d="M328.542,321.119c0,0,0.312-5.031-4.031-5.219c-4.344-0.188-4.438,5-4.438,5v2.344
			c0,0-1.875-5.75-4.595-5.313c-2.718,0.438-4.249,2.313-3.999,7.094c0,0-3.031-5.599-5.281-4.565
			c-2.25,1.034-1.313,6.222-1.313,6.222s-3.844-6.874-6.031-3.063c-2.188,3.813,1.813,8,1.813,8s4.828,2.225,12.575,0.774
			c0.044-0.008,0.088-0.017,0.132-0.024c3.133-0.601,5.689-2.783,7.999-2.71c3.223,0.104,4.791-0.791,5.771-2.083
			C327.144,327.576,329.292,325.931,328.542,321.119z"/>
	</g>
	<g class="st23">
		<defs>
			<rect id="SVGID_27_" x="149.206" y="183.201" width="148" height="137"/>
		</defs>
		<clipPath id="SVGID_28_">
			<use xlink:href="#SVGID_27_"  style="overflow:visible;"/>
		</clipPath>
		<g style="clip-path:url(#SVGID_28_);">
			
				<image style="overflow:visible;" width="148" height="137" xlink:href="82C179D2.png"  transform="matrix(1 0 0 1 149.2061 183.2007)">
			</image>
		</g>
	</g>
	<g class="st23">
		<defs>
			<rect id="SVGID_29_" x="326.206" y="194.201" width="127" height="123"/>
		</defs>
		<clipPath id="SVGID_30_">
			<use xlink:href="#SVGID_29_"  style="overflow:visible;"/>
		</clipPath>
		<g style="clip-path:url(#SVGID_30_);">
			
				<image style="overflow:visible;" width="127" height="123" xlink:href="82C179D6.png"  transform="matrix(1 0 0 1 326.2061 194.2007)">
			</image>
		</g>
	</g>
	<g class="st23">
		<defs>
			<rect id="SVGID_31_" x="261.206" y="206.202" width="112" height="112.999"/>
		</defs>
		<clipPath id="SVGID_32_">
			<use xlink:href="#SVGID_31_"  style="overflow:visible;"/>
		</clipPath>
		<g class="st42">
			<defs>
				<rect id="SVGID_33_" x="261.206" y="206.201" width="112" height="113"/>
			</defs>
			<clipPath id="SVGID_34_">
				<use xlink:href="#SVGID_33_"  style="overflow:visible;"/>
			</clipPath>
			<g style="clip-path:url(#SVGID_34_);">
				
					<image style="overflow:visible;" width="112" height="113" xlink:href="82C179D1.png"  transform="matrix(1 0 0 1 261.2061 206.2007)">
				</image>
			</g>
		</g>
	</g>
	<line class="st12" x1="272.273" y1="187.101" x2="293.273" y2="200.351"/>
	<g class="st23">
		<defs>
			<rect id="SVGID_35_" x="-721.794" y="-219.689" width="1950" height="841.89"/>
		</defs>
		<clipPath id="SVGID_36_">
			<use xlink:href="#SVGID_35_"  style="overflow:visible;"/>
		</clipPath>
		<path class="st38" d="M254.081,200.351c0,0-11.25-2.4-13.75,4.225c0,0-2.5,8.125,3.875,11.25c0,0,15.634,9.75,38.567,6
			c0,0,8.933-1.375,9.683-8c0,0,1.25-8.5-9-8.625C283.456,205.201,262.456,205.251,254.081,200.351"/>
		<path class="st46" d="M254.081,200.351c0,0-11.25-2.4-13.75,4.225c0,0-2.5,8.125,3.875,11.25c0,0,15.634,9.75,38.567,6
			c0,0,8.933-1.375,9.683-8c0,0,1.25-8.5-9-8.625C283.456,205.201,262.456,205.251,254.081,200.351z"/>
		<path class="st38" d="M371.581,211.306c0,0-13.75-1.604-14,9.271c0,0,0.25,7.625,12.375,8.125c0,0,18.125,2,27.125-3.375
			c0,0,6.125-2.125,5.5-8.625s-9.875-6.625-9.875-6.625S375.457,211.292,371.581,211.306"/>
		<path class="st43" d="M371.581,211.306c0,0-13.75-1.604-14,9.271c0,0,0.25,7.625,12.375,8.125c0,0,18.125,2,27.125-3.375
			c0,0,6.125-2.125,5.5-8.625s-9.875-6.625-9.875-6.625S375.457,211.292,371.581,211.306z"/>
		<line class="st46" x1="371.706" y1="200.351" x2="391.831" y2="193.726"/>
	</g>
	<g class="st23">
		<defs>
			<rect id="SVGID_37_" x="-721.794" y="-219.689" width="1950" height="841.89"/>
		</defs>
		<clipPath id="SVGID_38_">
			<use xlink:href="#SVGID_37_"  style="overflow:visible;"/>
		</clipPath>
		<path class="st33" d="M276.765,213.419c-0.171,6.107-5.273,9.006-11.779,8.844c-6.506-0.163-11.932-3.324-11.78-9.433
			c0.083-3.293,2.532-10.171,5.938-10.067c2.063,0.063,5.379,1.383,8.375,1.25C274.054,203.726,276.951,206.797,276.765,213.419"/>
		<path class="st33" d="M376.996,211.082c0,0-6.665,2.161-7.748,7.452c0,0-1.209,9.135,2.458,10.318c0,0,13.176,0.374,14.838-0.327
			c1.662-0.699,3.037-6.443,2.787-8.508c-0.25-2.066-0.37-9.196-3.997-9.443C381.706,210.326,376.996,211.082,376.996,211.082"/>
	</g>
	<g class="st23">
		<defs>
			<rect id="SVGID_39_" x="-721.794" y="-219.689" width="1950" height="841.89"/>
		</defs>
		<clipPath id="SVGID_40_">
			<use xlink:href="#SVGID_39_"  style="overflow:visible;"/>
		</clipPath>
	</g>
	<g class="st23">
		<defs>
			<rect id="SVGID_41_" x="-721.794" y="-219.689" width="1950" height="841.89"/>
		</defs>
		<clipPath id="SVGID_42_">
			<use xlink:href="#SVGID_41_"  style="overflow:visible;"/>
		</clipPath>
		<path class="st8" d="M275.206,39.701c0,0-115,5.5-140,111.25c0,0,72.5,43.75,124.5-30.75c0,0,83,95,187,44.75
			c0,0-15.042-5.75-22.396-21.75C416.956,127.201,381.456,30.701,275.206,39.701"/>
	</g>
	<g class="st23">
		<defs>
			<rect id="SVGID_43_" x="-721.794" y="-219.689" width="1950" height="841.89"/>
		</defs>
		<clipPath id="SVGID_44_">
			<use xlink:href="#SVGID_43_"  style="overflow:visible;"/>
		</clipPath>
		<path class="st26" d="M380.104,95.451c0,0-12.897-12.75-8.397,4.75c0,0,3.375,5.563-0.188,2.312c0,0-5.125-2.562-2.188,5.251
			c0,0,8.688,17.187,14.5,19.812c0,0,10,6.75,7.5-2.063c0,0,11.063,9.376,7-6.125C398.331,119.388,390.376,102.763,380.104,95.451"
			/>
		<path class="st26" d="M376.394,124.013c0,0-13.438-9.75-6.875,5.187c0,0,5.875,7.313,7.937,8.188c0,0,11.688,7.312,7.188-4.562
			C384.644,132.826,379.206,125.138,376.394,124.013"/>
		<path class="st26" d="M373.783,136.519c0,0-8.744-6.344-4.474,3.375c0,0,3.822,4.758,5.164,5.328c0,0,7.605,4.758,4.678-2.969
			C379.151,142.252,375.613,137.25,373.783,136.519"/>
	</g>
	<g class="st23">
		<defs>
			<rect id="SVGID_45_" x="-721.794" y="-219.689" width="1950" height="841.89"/>
		</defs>
		<clipPath id="SVGID_46_">
			<use xlink:href="#SVGID_45_"  style="overflow:visible;"/>
		</clipPath>
		<path class="st6" d="M219.206,13.701c0,0-35.75,19.625-38.375,21.125s-19.75,17.25-16.5,35.5c0,0,5.125,22,17.875,27
			c0,0,14,7.75,32.875,2.625c0,0,31.75-3.875,50.375-40.25c0,0,9.375-31.5-12.25-42.5S219.206,13.701,219.206,13.701"/>
		<path class="st14" d="M219.206,13.701c0,0-35.75,19.625-38.375,21.125s-19.75,17.25-16.5,35.5c0,0,5.125,22,17.875,27
			c0,0,14,7.75,32.875,2.625c0,0,31.75-3.875,50.375-40.25c0,0,9.375-31.5-12.25-42.5S219.206,13.701,219.206,13.701z"/>
	</g>
	<g class="st23">
		<defs>
			<rect id="SVGID_47_" x="-721.794" y="-219.689" width="1950" height="841.89"/>
		</defs>
		<clipPath id="SVGID_48_">
			<use xlink:href="#SVGID_47_"  style="overflow:visible;"/>
		</clipPath>
		<path class="st15" d="M196.665,13.742c0,0-1.05-0.818-2.167-0.503c-2.767,0.78-7.545,3.009-8.791,5.086c0,0-3.25,3.875,1.875,6.75
			l9,6.75c0,0,2.125,2.25,5.375,0s1.25-9.375,1.25-9.375S199.248,14.825,196.665,13.742"/>
		<path class="st47" d="M196.665,13.742c0,0-1.05-0.818-2.167-0.503c-2.767,0.78-7.545,3.009-8.791,5.086c0,0-3.25,3.875,1.875,6.75
			l9,6.75c0,0,2.125,2.25,5.375,0s1.25-9.375,1.25-9.375S199.248,14.825,196.665,13.742z"/>
		<g class="st29">
			<g>
				<defs>
					<rect id="SVGID_49_" x="175.267" y="29.135" width="77.147" height="46.083"/>
				</defs>
				<clipPath id="SVGID_50_">
					<use xlink:href="#SVGID_49_"  style="overflow:visible;"/>
				</clipPath>
				<path class="st31" d="M186.081,64.201c0,0-13.375,2.125-10.375,9.375s57.25-10.25,75.875-38c0,0,1.875-3.125,0-5.125
					s-5-1.125-5-1.125S224.331,54.826,186.081,64.201"/>
			</g>
		</g>
		<g class="st29">
			<g>
				<defs>
					<rect id="SVGID_51_" x="184.017" y="46.76" width="77.147" height="46.083"/>
				</defs>
				<clipPath id="SVGID_52_">
					<use xlink:href="#SVGID_51_"  style="overflow:visible;"/>
				</clipPath>
				<path class="st37" d="M194.831,81.826c0,0-13.375,2.125-10.375,9.375s57.25-10.25,75.875-38c0,0,1.875-3.125,0-5.125
					s-5-1.125-5-1.125S233.081,72.451,194.831,81.826"/>
			</g>
		</g>
		<g class="st29">
			<g>
				<defs>
					<rect id="SVGID_53_" x="185.654" y="54.374" width="26.43" height="42.566"/>
				</defs>
				<clipPath id="SVGID_54_">
					<use xlink:href="#SVGID_53_"  style="overflow:visible;"/>
				</clipPath>
				<path class="st41" d="M194.252,57.576c0,0-2.265-4.531-5.453-2.813c-3.187,1.719-4,2.751-2.218,6.969
					c1.781,4.219,9.875,26.252,15.5,31.111c0,0,4.125,5.546,7.375,3.733c0,0,5.375-1.687,0.75-8.125S194.236,61.763,194.252,57.576"
					/>
			</g>
		</g>
		<g class="st29">
			<g>
				<defs>
					<rect id="SVGID_55_" x="203.815" y="45.874" width="26.429" height="42.566"/>
				</defs>
				<clipPath id="SVGID_56_">
					<use xlink:href="#SVGID_55_"  style="overflow:visible;"/>
				</clipPath>
				<path class="st1" d="M212.413,49.076c0,0-2.265-4.531-5.453-2.813c-3.187,1.719-4,2.751-2.218,6.969
					c1.781,4.219,9.875,26.252,15.5,31.111c0,0,4.125,5.546,7.375,3.733c0,0,5.375-1.687,0.75-8.125S212.396,53.263,212.413,49.076"
					/>
			</g>
		</g>
		<g class="st29">
			<g>
				<defs>
					<rect id="SVGID_57_" x="218.723" y="35.072" width="27.244" height="42.075"/>
				</defs>
				<clipPath id="SVGID_58_">
					<use xlink:href="#SVGID_57_"  style="overflow:visible;"/>
				</clipPath>
				<path class="st11" d="M219.712,42.352c0,0-2.58-4.36,0.592-6.107c3.172-1.747,4.479-1.871,7.059,1.913
					c2.579,3.784,16.708,22.528,17.742,29.889c0,0,2.424,6.472-0.86,8.221c0,0-4.332,3.602-7.235-3.774
					C234.108,65.118,223.24,44.607,219.712,42.352"/>
			</g>
		</g>
		<g class="st29">
			<g>
				<defs>
					<rect id="SVGID_59_" x="234.598" y="24.836" width="23.743" height="42.113"/>
				</defs>
				<clipPath id="SVGID_60_">
					<use xlink:href="#SVGID_59_"  style="overflow:visible;"/>
				</clipPath>
				<path class="st25" d="M235.587,32.116c0,0-2.58-4.36,0.592-6.107c3.172-1.747,4.479-1.871,7.059,1.913
					c2.579,3.784,13.433,23.293,14.468,30.653c0,0,2.056,5.835-1.229,7.584c0,0-3.368,3.417-6.271-3.959
					C247.303,54.824,239.115,34.372,235.587,32.116"/>
			</g>
		</g>
	</g>
</g>
</svg>
