<?xml version="1.0" encoding="utf-8"?>
<!-- Generator: Adobe Illustrator 16.0.0, SVG Export Plug-In . SVG Version: 6.00 Build 0)  -->
<!DOCTYPE svg PUBLIC "-//W3C//DTD SVG 1.1//EN" "http://www.w3.org/Graphics/SVG/1.1/DTD/svg11.dtd">
<svg version="1.1" id="Layer_1" xmlns="http://www.w3.org/2000/svg" xmlns:xlink="http://www.w3.org/1999/xlink" x="0px" y="0px"
	 width="1280px" height="800px" viewBox="0 0 1280 800" enable-background="new 0 0 1280 800" xml:space="preserve">
<g id="Layer_3">
</g>
<g id="Layer_2">
	<g>
		<polygon fill="#76D0EF" points="588.082,0 421.262,0 644.127,527.96 		"/>
		<polygon fill="#76D0EF" points="0,241.975 0,447.567 644.127,527.96 		"/>
		<polygon fill="#76D0EF" points="878.534,0 710.021,0 644.127,527.96 		"/>
		<polygon fill="#76D0EF" points="1280,460.461 1280,259.542 644.127,527.96 		"/>
		<polygon fill="#76D0EF" points="259.706,0 0,0 0,40.56 644.127,527.96 		"/>
		<polygon fill="#76D0EF" points="270.509,800 438.278,800 644.127,527.96 		"/>
		<polygon fill="#76D0EF" points="0,596.335 0,799.861 644.127,527.96 		"/>
		<polygon fill="#76D0EF" points="1280,64.964 1280,0 1043.625,0 644.127,527.96 		"/>
		<polygon fill="#76D0EF" points="842.205,800 1003.643,800 644.127,527.96 		"/>
		<polygon fill="#76D0EF" points="1280,607.322 644.127,527.96 1256.846,800 1280,800 		"/>
		<polygon fill="#76D0EF" points="673.004,800 758.961,800 644.127,527.96 		"/>
		<polygon fill="#76D0EF" points="523.344,800 610.174,800 644.127,527.96 		"/>
		<polygon fill="#EBEBA1" points="0,799.861 0,800 270.509,800 644.127,527.96 		"/>
		<polygon fill="#EBEBA1" points="438.278,800 523.344,800 644.127,527.96 		"/>
		<polygon fill="#EBEBA1" points="610.174,800 673.004,800 644.127,527.96 		"/>
		<polygon fill="#EBEBA1" points="758.961,800 842.205,800 644.127,527.96 		"/>
		<polygon fill="#EBEBA1" points="1003.643,800 1256.846,800 644.127,527.96 		"/>
		<polygon fill="#EBEBA1" points="1280,607.322 1280,460.461 644.127,527.96 		"/>
		<polygon fill="#EBEBA1" points="1280,259.542 1280,64.964 644.127,527.96 		"/>
		<polygon fill="#EBEBA1" points="1043.625,0 878.534,0 644.127,527.96 		"/>
		<polygon fill="#EBEBA1" points="710.021,0 588.082,0 644.127,527.96 		"/>
		<polygon fill="#EBEBA1" points="421.262,0 259.706,0 644.127,527.96 		"/>
		<polygon fill="#EBEBA1" points="0,40.56 0,241.975 644.127,527.96 		"/>
		<polygon fill="#EBEBA1" points="0,447.567 0,596.335 644.127,527.96 		"/>
	</g>
</g>
<g id="Layer_1_1_" display="none">
	
		<image display="inline" overflow="visible" enable-background="new    " width="480" height="270" xlink:href="80AEDD5A.jpeg"  transform="matrix(2.6667 0 0 2.6667 2.441406e-004 80.001)">
	</image>
</g>
</svg>
