<?xml version="1.0" encoding="utf-8"?>
<!-- Generator: Adobe Illustrator 22.0.1, SVG Export Plug-In . SVG Version: 6.00 Build 0)  -->
<svg version="1.1" id="Layer_1" xmlns="http://www.w3.org/2000/svg" xmlns:xlink="http://www.w3.org/1999/xlink" x="0px" y="0px"
	 viewBox="0 0 5102.4 4252" style="enable-background:new 0 0 5102.4 4252;" xml:space="preserve">
<style type="text/css">
	.st0{fill:#F4E072;stroke:#A37A33;stroke-miterlimit:10;}
</style>
<g id="Layer_2_1_">
	<path class="st0" d="M1968.3,1134c0,0-256.9-332.8-683.7-123c0,0-180.9-160.5-220.7-69.4c0,0-10.9,76.6,148.3,163.5
		c0,0-119.4,57.9-76,206.2c0,0-318.4-25.3-170,224.3c0,0-209.8,14.5-246,61.5c0,0-242.4-90.4-199,0c0,0,57.9,54.3,119.4,43.4
		c0,0-354.5,188.1,347.3,466.7c0,0-430.5,177.3-369,423.3c0,0,7.2,246,369,249.6c0,0-571.6,180.9,322,25.3c0,0-338,310.9-67.7,416
		c0,0,302.9,166.4,747.8-419.6c0,0,155.6,1085.3,698.2-199c0,0-213,499.3,64.3,540.9c5,0.7,10.1,1.3,10.1,1.3s92.1,4.1,164.4-75.5
		c0,0,159.2,318.4,50.6-18.1l72.4-123c0,0,3.6,506.5,282.2,372.6c0,0,199-90.4,191.7-361.8c0,0,669.3,340.1,766.9,130.2
		c0,0,180.9-148.3-177.3-600.5l137.5-14.5c0,0,119.4,97.7,202.6,25.3c0,0,28.9-39.8-133.9-61.5c0,0,213.4-36.2,217.1-206.2
		s0-10.9,0-10.9s455.8-191.7-66.6-129.6c-6.7,0.8-6.6-1.4-6.6-1.4s-234.3-194.6-321.1-158.4c-86.8,36.2,643.9-180.9,322-383.5
		c0,0,148.3-43.4,137.5-90.4c0,0-115.8-72.4-242.4,54.3c0,0-340.1-119.4-528.2,50.6c0,0,379.9-322,32.6-481.1
		c0,0-115.8-83.2-318.4-57.9c0,0,191.7-133.9,101.3-133.9c-90.4,0-76,10.9-311.1,170c0,0-155.6,151.9-155.6,199
		s-144.7-445-278.6-466.7c0,0-224.3-209.8-510.1,296.6l-43.4,97.7c0,0-97.7-303.9-199-318.4C2149.1,848.2,1935.7,692.6,1968.3,1134z
		"/>
</g>
</svg>
