<?xml version="1.0" encoding="utf-8"?>
<!-- Generator: Adobe Illustrator 16.0.0, SVG Export Plug-In . SVG Version: 6.00 Build 0)  -->
<!DOCTYPE svg PUBLIC "-//W3C//DTD SVG 1.1//EN" "http://www.w3.org/Graphics/SVG/1.1/DTD/svg11.dtd">
<svg version="1.1" xmlns="http://www.w3.org/2000/svg" xmlns:xlink="http://www.w3.org/1999/xlink" x="0px" y="0px"
	 width="595.28px" height="841.89px" viewBox="0 0 595.28 841.89" enable-background="new 0 0 595.28 841.89" xml:space="preserve">
<g id="Layer_1">
	<image overflow="visible" width="560" height="380" xlink:href="arasuji.jpg"  transform="matrix(1 0 0 1 17.6406 179.3447)">
	</image>
</g>
<g id="Layer_2">
	<path fill="#FFFFFF" stroke="#1C1A19" stroke-width="2" stroke-miterlimit="10" d="M318.5,373.167c0,0-0.502-0.042-1.354-0.127
		c-3.615-0.365-13.527-1.527-17.979-3.695c0,0-8.5-2.155-12.167,0c0,0-5.5,4.322-3,9.489c0,0-1.5,3.333,12.833,8.667
		c0,0,9.5,3.667,21.667,3.333c0,0,13.167-1.167,15.167-3.667c0,0,4.499-3.333,2.833-8.333c0,0-3-5-5.333-5.333
		S327.333,373,318.5,373.167z"/>
	<path fill="#FFFFFF" stroke="#1C1A19" stroke-width="2" stroke-miterlimit="10" d="M413,379.621c0,0-12.666-0.621-10.166,10.546
		c0,0,1,4.666,11,5.833c0,0,24.499,2.71,30.166-5.145c0,0,4.667-4.188,0.667-9.688c0,0-2.333-4-11-3
		C433.667,378.167,425,381.909,413,379.621z"/>
</g>
<g id="Layer_3" display="none">
	<path display="inline" fill="#1C1A19" d="M319,373.754c0,0-3.625,1.888-4.375,4.256s-1.375,3.744,0,6.619s1.25,3.952,4.375,6.226
		l11.729-1.687c0,0,3.683-1.306,3.423-6.786c-0.001-0.027-0.03-0.051-0.026-0.078c0.286-1.801-0.149-3.582-1.125-5.051
		c-1.666-2.511-4.898-4.139-6.001-4.142C325.251,373.107,319,373.754,319,373.754z"/>
	<path display="inline" fill="#1C1A19" d="M429,379c0,0-3.625,1.888-4.375,4.256s-1.375,3.744,0,6.619s1.25,3.952,4.375,6.226
		l11.729-1.687c0,0,3.683-1.306,3.423-6.786c-0.001-0.027-0.03-0.051-0.026-0.078c0.286-1.801-0.149-3.582-1.125-5.051
		c-1.666-2.511-4.898-4.139-6.001-4.142C435.251,378.353,429,379,429,379z"/>
</g>
<g id="Layer_4" display="none">
	<path display="inline" fill="#1C1A19" d="M412.055,379.64c0,0-3.432,0.732-4.672,2.599c-1.241,1.866-2.113,2.903-1.773,5.739
		s-0.049,3.738,1.866,6.49l9.922,1.462c0,0,3.323-0.214,4.581-5.03c0.006-0.024-0.011-0.051-0.001-0.074
		c0.713-1.49,0.839-3.143,0.445-4.66c-0.674-2.592-2.847-4.81-3.737-5.087C417.276,380.638,412.055,379.64,412.055,379.64z"/>
	<path display="inline" fill="#1C1A19" d="M291.875,369.987c0,0-3.625,1.888-4.375,4.256s-1.375,3.744,0,6.619
		s1.25,3.952,5.192,5.368l8.332,2.557c0,0,6.263-4.691,6.003-10.171c-0.001-0.027-0.03-0.051-0.026-0.078
		c0.286-1.801-0.149-3.582-1.125-5.051c-1.666-2.511-4.898-4.139-6.001-4.142C298.126,369.34,291.875,369.987,291.875,369.987z"/>
</g>
</svg>
