<?xml version="1.0" encoding="utf-8"?>
<!-- Generator: Adobe Illustrator 16.0.0, SVG Export Plug-In . SVG Version: 6.00 Build 0)  -->
<!DOCTYPE svg PUBLIC "-//W3C//DTD SVG 1.1//EN" "http://www.w3.org/Graphics/SVG/1.1/DTD/svg11.dtd">
<svg version="1.1" id="Layer_1" xmlns="http://www.w3.org/2000/svg" xmlns:xlink="http://www.w3.org/1999/xlink" x="0px" y="0px"
	 width="311.769px" height="500px" viewBox="0 0 311.769 500" style="enable-background:new 0 0 311.769 500;" xml:space="preserve"
	>
<style type="text/css">
<![CDATA[
	.st0{fill:#799D3F;stroke:#3B2F26;stroke-width:0.9277;stroke-miterlimit:10;}
]]>
</style>
<path class="st0" d="M63.211,57.727c0,0-34.707,16.197-18.998,62.49c0,0-54.085,24.797-35.458,73.236
	c0,0,10.944,46.511,55.955,49.75c0,0-60.787,15.938-46.749,57.387c0,0,9.897,34.347,50.043,40.219c0,0-48.186,9.965-39.769,49.932
	c0,0,8.706,54.707,52.355,55.416c0,0-45.678,33.711-36.908,69.293l166.962-1.019c0,0,129.526-145.151,64.322-159.656
	c0,0,30.351-26.113,23.81-54.6c0,0-6.102-59.648-52.572-58.229c0,0,19.823-6.797,6.98-35.64c0,0-5.882-23.871-43.763-34.124
	c0,0,37.583-35.539-21.345-76.913c0,0-1.5-56.483-59.471-47.451c0,0,12.023-28.761-21.145-35.397
	C74.296,5.786,63.404,33.313,66.642,40.638C66.642,40.638,51.773,46.213,63.211,57.727z"/>
</svg>
