<?xml version="1.0" encoding="utf-8"?>
<!-- Generator: Adobe Illustrator 16.0.0, SVG Export Plug-In . SVG Version: 6.00 Build 0)  -->
<!DOCTYPE svg PUBLIC "-//W3C//DTD SVG 1.1//EN" "http://www.w3.org/Graphics/SVG/1.1/DTD/svg11.dtd">
<svg version="1.1" xmlns="http://www.w3.org/2000/svg" xmlns:xlink="http://www.w3.org/1999/xlink" x="0px" y="0px" width="1920px"
	 height="916px" viewBox="0 0 1920 916" style="enable-background:new 0 0 1920 916;" xml:space="preserve">
<style type="text/css">
<![CDATA[
	.st0{fill:#E7EAF6;}
	.st1{fill:#8794C6;}
	.st2{fill:#8ACDD2;}
	.st3{fill:#799D3F;stroke:#3B2F26;stroke-miterlimit:10;animation:st3ani 1s infinite alternate linear;}
	@keyframes st3ani{
		to{transform:translateX(10px)}
	}
	.st3.rt{animation:st3ani 1s 1s infinite alternate linear;}
	@keyframes st3ani{
		to{transform:translateX(-10px)}
	}
	.st4{fill:#FBFBFB;}
	.st5{fill:none;stroke:#CCEFC5;stroke-miterlimit:10;animation:st3ani 1s infinite alternate}
	.st6{fill:#3B2F26;}
	.st7{display:none;}
]]>
</style>
<g id="Layer_4">
	<rect class="st2" width="1920" height="916"/>
</g>
<g id="Layer_6">
	<polygon class="st1" points="664,848 830,848 830,900 1050,900 1074,848 1480,848 1480,826 1500,826 1500,846 1718,848 1718,768 
		1762,768 1762,666 1920,666 1920,916 610,916 610,844 654,800 	"/>
	<rect x="722.5" y="877.5" class="st0" width="28" height="32"/>
	<rect x="770.5" y="877.5" class="st0" width="28" height="32"/>
	<rect x="1085" y="877.5" class="st0" width="40" height="17.5"/>
	<rect x="1141" y="877.5" class="st0" width="40" height="17.5"/>
	<rect x="1201" y="877.5" class="st0" width="40" height="17.5"/>
	<rect x="1335.5" y="877.5" class="st0" width="40" height="34.5"/>
	<rect x="1385" y="877.75" class="st0" width="40" height="17"/>
	<rect x="1521" y="877.75" class="st0" width="40" height="17"/>
	<rect x="1589" y="864.25" class="st0" width="40" height="30.5"/>
	<rect x="1652" y="864.25" class="st0" width="40" height="30.5"/>
	<rect x="1771.5" y="674.125" class="st0" width="34.5" height="15.25"/>
	<rect x="1771.5" y="697.125" class="st6" width="34.5" height="15.25"/>
	<rect x="1771.5" y="720.625" class="st0" width="34.5" height="15.25"/>
	<rect x="1771.5" y="742.625" class="st6" width="34.5" height="15.25"/>
	<rect x="1816.5" y="674.125" class="st0" width="34.5" height="15.25"/>
	<rect x="1816.5" y="697.125" class="st0" width="34.5" height="15.25"/>
	<rect x="1816.5" y="720.625" class="st0" width="34.5" height="15.25"/>
	<rect x="1816.5" y="742.625" class="st6" width="34.5" height="15.25"/>
	<rect x="1862.5" y="674.125" class="st0" width="34.5" height="15.25"/>
	<rect x="1862.5" y="697.125" class="st6" width="34.5" height="15.25"/>
	<rect x="1862.5" y="720.625" class="st0" width="34.5" height="15.25"/>
	<rect x="1862.5" y="742.625" class="st0" width="34.5" height="15.25"/>
	<rect x="1771.5" y="762.75" class="st0" width="34.5" height="15.25"/>
	<rect x="1771.5" y="785.75" class="st6" width="34.5" height="15.25"/>
	<rect x="1771.5" y="809.25" class="st0" width="34.5" height="15.25"/>
	<rect x="1771.5" y="831.25" class="st0" width="34.5" height="15.25"/>
	<rect x="1816.5" y="762.75" class="st0" width="34.5" height="15.25"/>
	<rect x="1816.5" y="785.75" class="st0" width="34.5" height="15.25"/>
	<rect x="1816.5" y="809.25" class="st6" width="34.5" height="15.25"/>
	<rect x="1816.5" y="831.25" class="st0" width="34.5" height="15.25"/>
	<rect x="1862.5" y="762.75" class="st0" width="34.5" height="15.25"/>
	<rect x="1862.5" y="785.75" class="st0" width="34.5" height="15.25"/>
	<rect x="1862.5" y="809.25" class="st0" width="34.5" height="15.25"/>
	<rect x="1862.5" y="831.25" class="st0" width="34.5" height="15.25"/>
	<rect x="1771" y="852.875" class="st0" width="34.5" height="15.25"/>
	<rect x="1771" y="875.875" class="st6" width="34.5" height="15.25"/>
	<rect x="1816" y="852.875" class="st0" width="34.5" height="15.25"/>
	<rect x="1816" y="875.875" class="st0" width="34.5" height="15.25"/>
	<rect x="1862" y="852.875" class="st6" width="34.5" height="15.25"/>
	<rect x="1862" y="875.875" class="st0" width="34.5" height="15.25"/>
</g>
<g id="Layer_5">
	<ellipse class="st4" cx="1287" cy="186" rx="181" ry="98"/>
	<ellipse transform="matrix(0.9992 0.039 -0.039 0.9992 29.4289 -35.5698)" class="st4" cx="927" cy="737" rx="67" ry="37"/>
	<ellipse class="st4" cx="1480" cy="735" rx="36" ry="19"/>
</g>
<g id="Layer_1" class="st7">
	
		<image style="display:inline;overflow:visible;" width="640" height="360" xlink:href="../참고_img/1VLLO63EZ3_2.jpg"  transform="matrix(2.5444 0 0 2.5444 0 0)">
	</image>
</g>
<g id="Layer_3">
	<path class="st3" d="M-36.5-16c0,0-40.5,8-36,60.5c0,0-63,12-56,67.5c0,0-0.543,51.5,45.729,66.5c0,0-67.729,1-63.729,48
		c0,0,1.5,38.5,42,55c0,0-53-2-54.5,42c0,0-5,59.5,40.5,71.5c0,0-56.5,23.5-56.5,63L0,500c0,0,173-118.5,108.5-150.5
		c0,0,38.5-19.5,39-51c0,0,9-64-40-74.5c0,0,22.5-2,16.5-35.5c0,0,0-26.5-37-47c0,0,48.5-27.5-2.5-86c0,0,13-59.5-50-65
		c0,0,20-27-13-42.5s-51.5,10.5-50,19C-28.5-33-45.5-31-36.5-16z"/>
	<path class="st3" d="M77.652,334.66c0,0-41.271-0.987-48.281,51.237c0,0-64.103-1.969-69.324,53.726
		c0,0-11.715,50.153,30.194,74.844c0,0-66.329-13.733-72.632,33.014c0,0-6.898,37.906,29.052,62.809c0,0-51.3-13.463-62.321,29.16
		c0,0-17.804,56.994,24.004,78.59c0,0-60.255,10.668-68.834,49.225L1.21,846.27c0,0,194.607-78.097,138.597-123.342
		c0,0,41.816-10.673,49.146-41.313c0,0,22.686-60.518-22.864-81.409c0,0,22.397,2.935,23.816-31.069c0,0,5.756-25.867-25.909-53.914
		c0,0,53.315-16.31,16.238-84.49c0,0,25.612-55.256-34.689-74.308c0,0,25.387-22.011-3.459-44.309
		c-28.846-22.297-52.551-0.936-52.933,7.687C89.153,319.803,72.125,318.063,77.652,334.66z"/>
	<path class="st3" d="M164.746,553.764c0,0-41.271-0.988-48.281,51.236c0,0-64.103-1.969-69.324,53.727
		c0,0-11.715,50.152,30.194,74.844c0,0-66.329-13.733-72.632,33.014c0,0-6.898,37.906,29.052,62.809c0,0-51.3-13.463-62.321,29.16
		c0,0-17.804,56.994,24.004,78.59c0,0-60.255,10.668-68.834,49.225l161.701,79.006c0,0,194.607-78.097,138.597-123.342
		c0,0,41.816-10.673,49.146-41.313c0,0,22.686-60.518-22.864-81.409c0,0,22.397,2.935,23.816-31.069c0,0,5.756-25.867-25.909-53.914
		c0,0,53.315-16.31,16.238-84.49c0,0,25.612-55.256-34.689-74.308c0,0,25.387-22.011-3.459-44.309
		c-28.846-22.298-52.551-0.937-52.933,7.687C176.247,538.906,159.218,537.166,164.746,553.764z"/>
	<path class="st3" d="M342.292,690.66c0,0-41.271-0.988-48.281,51.236c0,0-64.103-1.969-69.324,53.727
		c0,0-11.715,50.152,30.194,74.844c0,0-66.329-13.733-72.632,33.014c0,0-6.898,37.906,29.052,62.809c0,0-51.3-13.463-62.321,29.16
		c0,0-17.804,56.994,24.004,78.59c0,0-60.255,10.668-68.834,49.225l161.701,79.006c0,0,194.607-78.097,138.597-123.342
		c0,0,41.816-10.673,49.146-41.313c0,0,22.686-60.518-22.864-81.409c0,0,22.397,2.935,23.816-31.069c0,0,5.756-25.867-25.909-53.914
		c0,0,53.315-16.31,16.238-84.49c0,0,25.612-55.256-34.689-74.308c0,0,25.387-22.011-3.459-44.309
		c-28.846-22.298-52.551-0.937-52.933,7.687C353.793,675.803,336.765,674.063,342.292,690.66z"/>
	<path class="st3" d="M608.746,700.66c0,0-41.271-0.988-48.281,51.236c0,0-64.103-1.969-69.324,53.727
		c0,0-11.715,50.152,30.194,74.844c0,0-66.329-13.733-72.632,33.014c0,0-6.898,37.906,29.052,62.809c0,0-51.3-13.463-62.321,29.16
		c0,0-17.804,56.994,24.004,78.59c0,0-60.255,10.668-68.834,49.225l161.701,79.006c0,0,194.607-78.097,138.597-123.342
		c0,0,41.816-10.673,49.146-41.313c0,0,22.686-60.518-22.864-81.409c0,0,22.397,2.935,23.816-31.069c0,0,5.756-25.867-25.909-53.914
		c0,0,53.315-16.31,16.238-84.49c0,0,25.612-55.256-34.689-74.308c0,0,25.387-22.011-3.459-44.309
		c-28.846-22.298-52.551-0.937-52.933,7.687C620.247,685.803,603.218,684.063,608.746,700.66z"/>
	<path class="st3 rt" d="M1874.085,642.283c0,0-39.107,13.225-27.783,64.687c0,0-60.89,20.133-46.695,74.241
		c0,0,6.193,51.129,54.029,59.951c0,0-67.018,9.846-56.907,55.92c0,0,6.52,37.974,48.829,49.037c0,0-52.806,4.945-48.542,48.764
		c0,0,2.821,59.644,49.498,65.593c0,0-52.942,30.685-47.779,69.845l178.989,18.764c0,0,156.025-140.098,87.896-163.392
		c0,0,35.621-24.365,31.998-55.66c0,0,0.557-64.628-49.395-68.633c0,0,22.045-4.924,11.717-37.353c0,0-3.463-26.271-42.826-41.76
		c0,0,44.489-33.604-13.721-84.936c0,0,5.111-60.688-58.067-57.905c0,0,16.3-29.382-18.444-40.436
		c-34.743-11.054-49.686,17.142-47.087,25.372C1879.794,624.383,1863.201,628.588,1874.085,642.283z"/>
	<path class="st5" d="M206,588c0,0-54.5-15.5-54.5,45c0,0-26-0.5-30,21c0,0-7,30.5,4.5,47.5c0,0-42.5,11.5-24,47
		c0,0-44.5,16.5-34.5,57"/>
	<path class="st5" d="M383.624,738.409c0,0-54.5-15.5-54.5,45c0,0-26-0.5-30,21c0,0-7,30.5,4.5,47.5c0,0-42.5,11.5-24,47
		c0,0-44.5,16.5-34.5,57"/>
	<path class="st5" d="M136.018,382.622c0,0-54.5-15.5-54.5,45c0,0-26-0.5-30,21c0,0-7,30.5,4.5,47.5c0,0-42.5,11.5-24,47
		c0,0-44.5,16.5-34.5,57"/>
</g>
</svg>
